# xmcd
#
# Track frame offsets: 
#        150
#        4480
#        23591
#        41482
#        57152
#        72846
#        87863
#        109362
#        124580
#        138703
#        163885
#        184118
#        202086
#        217742
#        237577
#
# Disc length: 3393 seconds
#
# Revision: 2
# Processed by: cddbd v1.5.2PL0 Copyright (c) Steve Scherf et al.
# Submitted via: ExactAudioCopy v0.99pb5
#
DISCID=d80d3f0f
DTITLE=August Alsina - This Thing Called Life
DYEAR=2015
DGENRE=R&B
TTITLE0=This Thing Called Life
TTITLE1=Job featuring Anthony Hamilton and Jadakiss
TTITLE2=Why I Do It featuring Lil Wayne
TTITLE3=Hollywood
TTITLE4=Hip Hop
TTITLE5=Change
TTITLE6=Dreamer
TTITLE7=Been Around The World featuring Chris Brown
TTITLE8=First Time
TTITLE9=Would You Know?
TTITLE10=Song Cry
TTITLE11=Other Side
TTITLE12=American Dream
TTITLE13=Look At How Far I've Come
TTITLE14=The Encore
EXTD=
EXTT0=
EXTT1=
EXTT2=
EXTT3=
EXTT4=
EXTT5=
EXTT6=
EXTT7=
EXTT8=
EXTT9=
EXTT10=
EXTT11=
EXTT12=
EXTT13=
EXTT14=
PLAYORDER=
